<svg id="Layer_1" data-name="Layer 1" xmlns="http://www.w3.org/2000/svg" width="40.32" height="40.08" viewBox="0 0 40.32 40.08"><title>fav copy</title><path d="M25,10.18a6.43,6.43,0,0,0-4.84,2.25,6.43,6.43,0,0,0-4.84-2.25,5.85,5.85,0,0,0-5.91,5.91c0,4.06,3.66,7.37,9.19,12.4l1.56,1.41,1.56-1.42c5.53-5,9.19-8.33,9.19-12.39A5.85,5.85,0,0,0,25,10.18ZM20.27,26.89l-.11.11-.11-.11c-5.11-4.63-8.49-7.69-8.49-10.8a3.67,3.67,0,0,1,3.76-3.76,4.19,4.19,0,0,1,3.84,2.54h2A4.17,4.17,0,0,1,25,12.33a3.67,3.67,0,0,1,3.76,3.76C28.76,19.2,25.38,22.26,20.27,26.89Z" fill="#b3b3b3"/></svg>