<svg id="Layer_1" data-name="Layer 1" xmlns="http://www.w3.org/2000/svg" width="40.32" height="40.08" viewBox="0 0 40.32 40.08"><title>subha copy</title><path d="M15,26.7a4.3,4.3,0,1,1,4.3-4.3A4.3,4.3,0,0,1,15,26.7Zm0-6.45a2.15,2.15,0,1,0,2.15,2.15A2.16,2.16,0,0,0,15,20.25Zm4.3-2.14a4.3,4.3,0,1,1,4.3-4.3A4.3,4.3,0,0,1,19.3,18.11Zm0-6.45a2.15,2.15,0,1,0,2.15,2.15A2.15,2.15,0,0,0,19.3,11.66Zm6,18.91a4.3,4.3,0,1,1,4.3-4.3A4.29,4.29,0,0,1,25.32,30.57Zm0-6.45a2.15,2.15,0,1,0,2.15,2.15A2.16,2.16,0,0,0,25.32,24.12Z" fill="#b3b3b3"/></svg>