<svg id="Layer_1" data-name="Layer 1" xmlns="http://www.w3.org/2000/svg" width="40.32" height="40.08" viewBox="0 0 40.32 40.08"><title>settings copy</title><path d="M28.15,21.09a7.91,7.91,0,0,0,0-2.1l2.27-1.78a.53.53,0,0,0,.12-.68L28.4,12.81a.53.53,0,0,0-.48-.27.52.52,0,0,0-.18,0l-2.68,1.08a8,8,0,0,0-1.81-1.06l-.41-2.85a.53.53,0,0,0-.53-.45H18a.52.52,0,0,0-.52.45l-.41,2.85a8.25,8.25,0,0,0-1.82,1.06l-2.67-1.08a.69.69,0,0,0-.2,0,.52.52,0,0,0-.46.27L9.78,16.53a.51.51,0,0,0,.13.68L12.18,19a6.93,6.93,0,0,0,0,2.1L9.91,22.87a.53.53,0,0,0-.13.68l2.15,3.72a.53.53,0,0,0,.47.27.58.58,0,0,0,.19,0l2.67-1.08a7.88,7.88,0,0,0,1.82,1.06l.41,2.85a.52.52,0,0,0,.52.45h4.3a.53.53,0,0,0,.53-.45l.41-2.85a8.42,8.42,0,0,0,1.81-1.06l2.68,1.08a.63.63,0,0,0,.19,0,.53.53,0,0,0,.47-.27l2.14-3.72a.53.53,0,0,0-.12-.68ZM26,19.26a6,6,0,0,1,.05.78c0,.23,0,.46-.05.78L25.87,22l1,.75,1.16.9L27.23,25l-1.36-.54L24.75,24l-1,.73a6.26,6.26,0,0,1-1.34.78L21.3,26l-.17,1.22-.22,1.45h-1.5l-.2-1.45L19,26l-1.14-.46a6.08,6.08,0,0,1-1.32-.76l-1-.75-1.13.46L13.09,25l-.75-1.31,1.16-.9,1-.75-.16-1.21c0-.34-.05-.59-.05-.8s0-.46.05-.78L14.46,18l-1-.75-1.16-.9.75-1.3,1.37.54,1.11.45,1-.73a6.26,6.26,0,0,1,1.34-.78L19,14.11l.18-1.22.21-1.45H20.9l.21,1.45.17,1.22,1.14.46a6.08,6.08,0,0,1,1.32.76l1,.75,1.14-.46,1.36-.55L28,16.38l-1.15.91-1,.75Zm-5.86-3.52a4.3,4.3,0,1,0,4.3,4.3A4.3,4.3,0,0,0,20.16,15.74Zm0,6.45A2.15,2.15,0,1,1,22.31,20,2.16,2.16,0,0,1,20.16,22.19Z" fill="#b3b3b3"/></svg>