<svg id="Layer_1" data-name="Layer 1" xmlns="http://www.w3.org/2000/svg" width="184.47" height="111.91" viewBox="0 0 184.47 111.91"><title>logo-light</title><g id="Layer_2" data-name="Layer 2"><g id="Layer_1-2" data-name="Layer 1-2"><path d="M41.52,111.91a33.43,33.43,0,0,1-5.38-.4,30.4,30.4,0,0,1-4.11-.89l1.68-10.57c.8.13,1.55.24,2.28.34a15.72,15.72,0,0,0,2.17.15c2.51,0,4.3-.73,5.39-2.18s1.63-3.78,1.63-7V50.42H58.73v43.2a24.89,24.89,0,0,1-1.44,9.09,13.58,13.58,0,0,1-3.9,5.69,13.79,13.79,0,0,1-5.54,2.77A27,27,0,0,1,41.52,111.91Z" style="fill:#6f86d6"/><path d="M89.67,101.13a51.89,51.89,0,0,0,5.29-.24,13.48,13.48,0,0,0,3.9-.94,5,5,0,0,0,2.37-2,6.35,6.35,0,0,0,.8-3.36h-9.5a31.1,31.1,0,0,1-9-1.24,19.82,19.82,0,0,1-7.12-3.75,16.84,16.84,0,0,1-4.69-6.53A23.82,23.82,0,0,1,70,73.75a28.35,28.35,0,0,1,1.44-9A22.16,22.16,0,0,1,75.81,57a20.81,20.81,0,0,1,7.46-5.39,25.9,25.9,0,0,1,10.43-2A25.25,25.25,0,0,1,102.1,51a21.17,21.17,0,0,1,7,4.05A18.68,18.68,0,0,1,114,61.79a23.25,23.25,0,0,1,1.78,9.39V83.54h7.12a2.32,2.32,0,0,1,2.1,1.33,9.47,9.47,0,0,1,.74,4.3,20.92,20.92,0,0,1-.29,4.4c-.2.69-.47,1-.8,1h-9.15a20.2,20.2,0,0,1-2.62,8.06,16.25,16.25,0,0,1-5.34,5.38,22.85,22.85,0,0,1-7.71,3,49,49,0,0,1-9.74.89,48.48,48.48,0,0,1-6.37-.45,58.18,58.18,0,0,1-6.28-1.13l2-10.48c1.51.33,3.13.62,4.84.89A36.42,36.42,0,0,0,89.67,101.13ZM84,72.46q0,5.64,2.72,8.36t7.76,2.72h7.71V72.17a19.6,19.6,0,0,0-.44-4.25,11.28,11.28,0,0,0-1.48-3.61,7.24,7.24,0,0,0-2.72-2.52,8.08,8.08,0,0,0-3.86-.89,10.28,10.28,0,0,0-3.56.64,8.08,8.08,0,0,0-3.11,2,10.23,10.23,0,0,0-2.18,3.6A15,15,0,0,0,84,72.46Z" style="fill:#6f86d6"/><path d="M137.42,14.33h1.68a13.22,13.22,0,0,0,2.17-.33,7.74,7.74,0,0,1-2.82-2.57,7,7,0,0,1-1.23-4.06A7,7,0,0,1,139.44,2a7.38,7.38,0,0,1,5.19-2,10,10,0,0,1,2.92.44,7.25,7.25,0,0,1,2.57,1.44,6.42,6.42,0,0,1,1.73,2.42,8.7,8.7,0,0,1,.59,3.31,10.23,10.23,0,0,1-.89,4.25,10.2,10.2,0,0,1-2.72,3.56,13,13,0,0,1-4.54,2.47,20.59,20.59,0,0,1-6.38.89,26,26,0,0,1-7.22-1,23.12,23.12,0,0,1-5.14-2l1.68-4.25a27.51,27.51,0,0,0,5,2A18.32,18.32,0,0,0,137.42,14.33ZM142,7.51A3.48,3.48,0,0,0,143.1,10a8,8,0,0,0,3.11,1.83,3.9,3.9,0,0,0,1.09-1.73,7.4,7.4,0,0,0,.4-2.42,3.48,3.48,0,0,0-.84-2.47,2.72,2.72,0,0,0-2-.89,2.78,2.78,0,0,0-2,.84A3.11,3.11,0,0,0,142,7.51Z" style="fill:#6f86d6"/><path d="M123.28,83.54a19.85,19.85,0,0,0,5.09-.54,6.46,6.46,0,0,0,3.11-1.68A6,6,0,0,0,133,78.49a17.91,17.91,0,0,0,.39-4v-24h13.45V76.81a25.21,25.21,0,0,1-1.09,7.91,12.46,12.46,0,0,1-3.61,5.49,16,16,0,0,1-6.67,3.31,41.68,41.68,0,0,1-10.38,1.09,5.11,5.11,0,0,1-3.86-1.34,5.43,5.43,0,0,1-1.28-3.9,9,9,0,0,1,.84-4.3A2.71,2.71,0,0,1,123.28,83.54Zm10.18-49.83a6.75,6.75,0,0,1,2-5,7,7,0,0,1,5.09-2,6.66,6.66,0,0,1,5,2,6.93,6.93,0,0,1,1.93,5,7,7,0,0,1-1.93,5.14,6.66,6.66,0,0,1-5,2,6.85,6.85,0,0,1-5.14-2,7,7,0,0,1-1.95-5.14Z" style="fill:#6f86d6"/></g></g></svg>