<svg id="Layer_1" data-name="Layer 1" xmlns="http://www.w3.org/2000/svg" width="40.32" height="40.08" viewBox="0 0 40.32 40.08"><title>click</title><path d="M8.16,11.13h24v24h-24Z" fill="none"/><path d="M26.42,21l-3.24-1.62A5.45,5.45,0,0,0,25.3,15a5.5,5.5,0,1,0-8,4.89v3.26A12.11,12.11,0,0,0,15,22.75a2,2,0,0,0-1.41.59l-1.4,1.42,5.09,5.09a2.31,2.31,0,0,0,1.65.69h6.3a2,2,0,0,0,2-1.67l.8-4.71A3,3,0,0,0,26.42,21Zm-.35,2.85-.8,4.71H19a.37.37,0,0,1-.24-.1l-3.68-3.68,4.25.89V15a.5.5,0,0,1,1,0v6h1.76l3.46,1.73A1,1,0,0,1,26.07,23.83ZM16.3,15a3.5,3.5,0,0,1,7,0,3.46,3.46,0,0,1-1,2.44V15a2.5,2.5,0,0,0-5,0v2.44A3.46,3.46,0,0,1,16.3,15Z"/></svg>