<svg id="Layer_1" data-name="Layer 1" xmlns="http://www.w3.org/2000/svg" width="40.32" height="40.08" viewBox="0 0 40.32 40.08"><title>morning</title><path d="M20.16,17a3,3,0,1,1-3,3,3,3,0,0,1,3-3m0-2a5,5,0,1,0,5,5,5,5,0,0,0-5-5Zm-10,6h2a1,1,0,1,0,0-2h-2a1,1,0,0,0,0,2Zm18,0h2a1,1,0,1,0,0-2h-2a1,1,0,0,0,0,2Zm-9-11v2a1,1,0,1,0,2,0V10a1,1,0,0,0-2,0Zm0,18v2a1,1,0,0,0,2,0V28a1,1,0,0,0-2,0Zm-5-15.42A1,1,0,0,0,12.74,14l1.06,1.06a1,1,0,0,0,1.41-1.41ZM26.52,25a1,1,0,0,0-1.41,1.41l1.06,1.06a1,1,0,1,0,1.41-1.41Zm1.06-11a1,1,0,0,0-1.41-1.41l-1.06,1.06a1,1,0,1,0,1.41,1.41ZM15.21,26.4A1,1,0,0,0,13.8,25l-1.06,1.06a1,1,0,1,0,1.41,1.41Z"/></svg>