<svg id="Layer_1" data-name="Layer 1" xmlns="http://www.w3.org/2000/svg" width="40.32" height="40.08" viewBox="0 0 40.32 40.08"><title>share</title><path d="M12.67,23.23a3.19,3.19,0,1,1,3.18-3.18,3.18,3.18,0,0,1-3.18,3.18Zm0-5.42a2.24,2.24,0,1,0,2.24,2.24,2.24,2.24,0,0,0-2.24-2.24Z" fill="#b4b4b4" stroke="#b4b4b4" stroke-miterlimit="10"/><path d="M27.65,15.18A3.19,3.19,0,1,1,30.83,12a3.18,3.18,0,0,1-3.18,3.19Zm0-5.41A2.24,2.24,0,1,0,29.89,12a2.24,2.24,0,0,0-2.24-2.24Z" fill="#b4b4b4" stroke="#b4b4b4" stroke-miterlimit="10"/><path d="M27.65,31.27a3.19,3.19,0,1,1,3.18-3.18,3.18,3.18,0,0,1-3.18,3.18Zm0-5.42a2.24,2.24,0,1,0,2.24,2.24,2.24,2.24,0,0,0-2.24-2.24Z" fill="#b4b4b4" stroke="#b4b4b4" stroke-miterlimit="10"/><path d="M24.87,27.13a.4.4,0,0,1-.24-.07L15,21.5a.47.47,0,1,1,.46-.82l9.62,5.55a.49.49,0,0,1,.18.65.49.49,0,0,1-.41.25Z" fill="#b4b4b4" stroke="#b4b4b4" stroke-miterlimit="10"/><path d="M15.26,19.46a.5.5,0,0,1-.41-.24.46.46,0,0,1,.18-.64L24.65,13a.47.47,0,1,1,.46.82L15.5,19.42c-.09,0-.17,0-.24,0Z" fill="#b4b4b4" stroke="#b4b4b4" stroke-miterlimit="10"/></svg>