<svg id="Layer_1" data-name="Layer 1" xmlns="http://www.w3.org/2000/svg" width="40.32" height="40.08" viewBox="0 0 40.32 40.08"><title>tashkeel</title><polygon points="27.66 15.54 28.6 13.48 30.66 12.54 28.6 11.6 27.66 9.54 26.72 11.6 24.66 12.54 26.72 13.48 27.66 15.54"/><polygon points="16.16 15.54 17.1 13.48 19.16 12.54 17.1 11.6 16.16 9.54 15.22 11.6 13.16 12.54 15.22 13.48 16.16 15.54"/><polygon points="27.66 21.04 26.72 23.1 24.66 24.04 26.72 24.98 27.66 27.04 28.6 24.98 30.66 24.04 28.6 23.1 27.66 21.04"/><path d="M25.37,17.66l-2.83-2.83a1,1,0,0,0-1.42,0L10,26a1,1,0,0,0,0,1.41l2.83,2.83a1,1,0,0,0,.71.3,1,1,0,0,0,.71-.29L25.37,19.08A1,1,0,0,0,25.37,17.66ZM21.83,17l1.41,1.41-1.17,1.17-1.41-1.41ZM13.49,28.13l-1.41-1.41,7.17-7.18L20.66,21Z"/></svg>