<?xml version="1.0" encoding="utf-8"?>
<!-- Generator: Adobe Illustrator 24.0.2, SVG Export Plug-In . SVG Version: 6.00 Build 0)  -->
<svg version="1.1" id="Layer_1" xmlns="http://www.w3.org/2000/svg" xmlns:xlink="http://www.w3.org/1999/xlink" x="0px" y="0px"
	 viewBox="0 0 40 40" enable-background="new 0 0 40 40" xml:space="preserve">
<g>
	<g>
		<g>
			<g>
				<g>
					<path fill="#FFFFFF" d="M31.6,22.93c-0.22,0-0.43-0.08-0.6-0.23l-4.75-4.32c-0.36-0.33-0.39-0.89-0.06-1.25
						c0.33-0.36,0.89-0.39,1.25-0.06l4.09,3.72l3.72-4.1c0.33-0.36,0.89-0.39,1.25-0.06c0.36,0.33,0.39,0.89,0.06,1.25l-4.31,4.76
						c-0.16,0.17-0.38,0.28-0.61,0.29C31.63,22.93,31.61,22.93,31.6,22.93z"/>
				</g>
				<g>
					<path fill="#FFFFFF" d="M4.09,23.59c-0.21,0-0.42-0.08-0.59-0.23c-0.36-0.33-0.39-0.89-0.06-1.25l4.31-4.76
						c0.16-0.17,0.38-0.28,0.61-0.29c0.26-0.02,0.46,0.07,0.64,0.23l4.75,4.32c0.36,0.33,0.39,0.89,0.06,1.25
						c-0.33,0.36-0.89,0.39-1.25,0.06L8.46,19.2l-3.72,4.1C4.57,23.49,4.33,23.59,4.09,23.59z"/>
				</g>
			</g>
		</g>
		<g>
			<g>
				<g>
					<path fill="#FFFFFF" d="M31.67,22.61c-0.04,0-0.09,0-0.13-0.01c-0.48-0.07-0.82-0.52-0.74-1c0.43-2.88-0.3-5.76-2.03-8.1
						c-1.74-2.34-4.28-3.86-7.16-4.29c-2.88-0.43-5.76,0.29-8.1,2.03c-0.39,0.29-0.94,0.21-1.24-0.18
						c-0.29-0.39-0.21-0.95,0.18-1.24c2.72-2.02,6.06-2.85,9.41-2.36c3.35,0.5,6.3,2.27,8.32,4.99c2.02,2.72,2.86,6.06,2.36,9.41
						C32.47,22.3,32.1,22.61,31.67,22.61z"/>
				</g>
				<g>
					<path fill="#FFFFFF" d="M20.03,32.68c-0.63,0-1.26-0.05-1.89-0.14c-3.35-0.5-6.3-2.27-8.32-4.99
						c-2.02-2.72-2.86-6.06-2.36-9.41c0.07-0.48,0.54-0.81,1-0.74c0.48,0.07,0.82,0.52,0.74,1c-0.43,2.88,0.3,5.76,2.03,8.1
						c1.74,2.34,4.28,3.86,7.16,4.29c2.89,0.43,5.76-0.29,8.1-2.03c0.39-0.29,0.95-0.21,1.24,0.18c0.29,0.39,0.21,0.95-0.18,1.24
						C25.35,31.82,22.73,32.68,20.03,32.68z"/>
				</g>
			</g>
		</g>
	</g>
</g>
</svg>
