<?xml version="1.0" encoding="utf-8"?>
<!-- Generator: Adobe Illustrator 25.2.3, SVG Export Plug-In . SVG Version: 6.00 Build 0)  -->
<svg version="1.1" id="Layer_1" xmlns="http://www.w3.org/2000/svg" xmlns:xlink="http://www.w3.org/1999/xlink" x="0px" y="0px"
	 viewBox="0 0 40 40" style="enable-background:new 0 0 40 40;" xml:space="preserve">
<style type="text/css">
	.st0{fill:url(#SVGID_1_);}
	.st1{fill:url(#SVGID_2_);}
	.st2{fill:url(#SVGID_3_);}
	.st3{fill:url(#SVGID_4_);}
	.st4{fill:url(#SVGID_5_);}
	.st5{fill:url(#SVGID_6_);}
	.st6{fill:url(#SVGID_7_);}
	.st7{fill:url(#SVGID_8_);}
	.st8{fill:url(#SVGID_9_);}
	.st9{fill:url(#SVGID_10_);}
	.st10{fill:url(#SVGID_11_);}
	.st11{fill:url(#SVGID_12_);}
	.st12{fill:url(#SVGID_13_);}
	.st13{fill:url(#SVGID_14_);}
	.st14{fill:url(#SVGID_15_);}
	.st15{fill:url(#SVGID_16_);}
	.st16{fill:url(#SVGID_17_);}
	.st17{fill:url(#SVGID_18_);}
	.st18{fill:none;}
	.st19{filter:url(#Adobe_OpacityMaskFilter);}
	.st20{fill:url(#SVGID_20_);}
	.st21{opacity:0.3;mask:url(#SVGID_19_);}
	.st22{fill:#F4F4F4;}
	.st23{filter:url(#Adobe_OpacityMaskFilter_1_);}
	.st24{fill:url(#SVGID_22_);}
	.st25{opacity:0.3;mask:url(#SVGID_21_);}
	.st26{filter:url(#Adobe_OpacityMaskFilter_2_);}
	.st27{fill:url(#SVGID_24_);}
	.st28{opacity:0.3;mask:url(#SVGID_23_);}
	.st29{filter:url(#Adobe_OpacityMaskFilter_3_);}
	.st30{fill:url(#SVGID_26_);}
	.st31{opacity:0.3;mask:url(#SVGID_25_);}
	.st32{fill:#F2F2F2;}
	.st33{fill:#C4C4C4;}
	.st34{fill:#FBAE17;}
	.st35{opacity:0.68;}
	.st36{fill:#7F47DD;}
	.st37{fill:#C1272D;}
	.st38{fill:#66BBDD;}
	.st39{fill:url(#SVGID_27_);}
	.st40{fill:#6DD1F2;}
	.st41{fill:#666666;}
	.st42{fill:none;stroke:#808080;stroke-width:1.7914;stroke-miterlimit:10;}
	.st43{fill:#FFFFFF;}
	.st44{fill:none;stroke:#FFFFFF;stroke-width:1.7914;stroke-miterlimit:10;}
	.st45{fill:none;stroke:#FFFFFF;stroke-width:1.4516;stroke-linejoin:round;stroke-miterlimit:10;}
	.st46{fill:#FFFFFF;stroke:#FFFFFF;stroke-width:0.4935;stroke-miterlimit:10;}
	.st47{fill:none;stroke:#FFFFFF;stroke-width:1.5;stroke-linecap:round;stroke-linejoin:round;stroke-miterlimit:10;}
	.st48{fill-rule:evenodd;clip-rule:evenodd;fill:#FFFFFF;}
	.st49{fill-rule:evenodd;clip-rule:evenodd;fill:url(#SVGID_28_);}
	.st50{fill:none;stroke:#FFFFFF;stroke-width:1.4262;stroke-miterlimit:10;}
</style>
<g>
	<path class="st43" d="M25,23.6c0,0.1,0,0.1,0,0.2c0,1.2-1,2.2-2.2,2.2c-1.2,0-2.2-1-2.2-2.2c0-0.9,0.5-1.7,1.3-2
		c-0.3-0.3-0.6-0.6-0.8-1c-0.9,0.5-1.5,1.4-1.7,2.5c-0.5-0.3-1.1-0.4-1.6-0.4c-0.6,0-1.2,0.2-1.7,0.4c-0.2-1.7-1.7-2.9-3.4-2.9
		c-0.1,0-0.1,0-0.2,0c0.2-0.4,0.3-0.9,0.3-1.4c0-1.3-0.7-2.4-1.7-3c0.8-0.6,1.3-1.6,1.3-2.7c0-0.5-0.1-1-0.3-1.5
		c1.4-0.1,2.5-0.9,3-2.1c0.6,0.6,1.5,1,2.4,1c1,0,1.8-0.4,2.4-1c0.3,0.6,0.7,1.2,1.2,1.5c0.3-0.3,0.6-0.6,0.9-0.9
		C21.4,10.1,21,9.4,21,8.5c0-1.2,1-2.2,2.2-2.2s2.2,1,2.2,2.2c0,0,0,0.1,0,0.1c0.4-0.1,0.8-0.2,1.2-0.2c-0.1-1.8-1.6-3.3-3.4-3.3
		c-1,0-1.8,0.4-2.4,1C20.2,4.9,19,4,17.6,4c-1.4,0-2.7,0.9-3.2,2.1c-0.6-0.6-1.5-1-2.4-1c-1.9,0-3.4,1.5-3.4,3.4
		c0,0.5,0.1,1,0.3,1.5c-1.8,0.1-3.2,1.6-3.2,3.4c0,1.3,0.7,2.4,1.7,3C6.6,17,6.1,17.9,6.1,19c0,1.9,1.5,3.4,3.4,3.4
		c0.1,0,0.1,0,0.2,0c-0.2,0.4-0.3,0.9-0.3,1.4c0,1.9,1.5,3.4,3.4,3.4c0.6,0,1.2-0.2,1.7-0.4c0.1,0.9,0.6,1.6,1.2,2.2
		c-0.6,0.4-1.3,1-1.9,1.9c-0.9,1.2-1.4,2.5-1.4,2.5c-0.1,0.3,0,0.7,0.3,0.8l4.1,1.8C16.9,36,17,36,17,36c0.1,0,0.1,0,0.2,0
		c0.2-0.1,0.3-0.2,0.4-0.3c0.1-0.2,0.7-1.5,1-2.9c0.4-1.4,0.4-2.5,0.1-3.2c1.3-0.4,2.2-1.5,2.4-2.8c0.5,0.3,1.1,0.4,1.6,0.4
		c1.8,0,3.4-1.5,3.4-3.3C25.9,23.8,25.4,23.7,25,23.6z M17.6,5.2c1.2,0,2.2,1,2.2,2.2s-1,2.2-2.2,2.2s-2.2-1-2.2-2.2
		S16.4,5.2,17.6,5.2z M12,6.4c1.2,0,2.2,1,2.2,2.2s-1,2.2-2.2,2.2s-2.2-1-2.2-2.2S10.8,6.4,12,6.4z M6.9,13.4c0-1.2,1-2.2,2.2-2.2
		s2.2,1,2.2,2.2s-1,2.2-2.2,2.2S6.9,14.6,6.9,13.4z M9.5,21.2c-1.2,0-2.2-1-2.2-2.2s1-2.2,2.2-2.2s2.2,1,2.2,2.2S10.7,21.2,9.5,21.2
		z M12.8,25.9c-1.2,0-2.2-1-2.2-2.2c0-1.2,1-2.2,2.2-2.2s2.2,1,2.2,2.2C15,25,14,25.9,12.8,25.9z M17.4,32.4
		c-0.2,0.8-0.5,1.6-0.7,2.1l-2.9-1.3c0.8-1.7,2.2-3.6,3.4-3.6c0,0,0.1,0,0.1,0c0,0,0,0,0,0C17.7,29.9,17.9,30.7,17.4,32.4z
		 M17.8,28.4c-1.2,0-2.2-1-2.2-2.2s1-2.2,2.2-2.2s2.2,1,2.2,2.2S19.1,28.4,17.8,28.4z"/>
	<g>
		<path class="st43" d="M27.3,9.1c-3.9,0-7,3.1-7,7c0,3.9,3.1,7,7,7s7-3.1,7-7C34.3,12.2,31.2,9.1,27.3,9.1z M27.3,21.9
			c-3.2,0-5.8-2.6-5.8-5.8c0-3.2,2.6-5.8,5.8-5.8s5.8,2.6,5.8,5.8C33.2,19.3,30.5,21.9,27.3,21.9z"/>
		<path class="st43" d="M29.8,15.3h-1.6v-1.8c0-0.6-0.3-0.9-0.9-0.9c-0.5,0-0.8,0.3-0.8,0.9v1.8h-1.6c-0.6,0-0.9,0.3-0.9,0.9
			c0,0.6,0.3,0.9,0.9,0.9h1.6v1.8c0,0.6,0.3,0.9,0.9,0.9c0.6,0,0.9-0.3,0.9-0.9V17h1.6c0.6,0,0.9-0.3,0.9-0.9
			C30.7,15.6,30.4,15.3,29.8,15.3z"/>
	</g>
</g>
</svg>
