<svg id="Layer_1" data-name="Layer 1" xmlns="http://www.w3.org/2000/svg" width="40.32" height="40.08" viewBox="0 0 40.32 40.08"><title>allah-names</title><path d="M30.63,15a10.57,10.57,0,0,0-1.47-.61v12a10.29,10.29,0,0,0-3.5-.62,10.6,10.6,0,0,0-5.5,1.58V15.27A10.93,10.93,0,0,0,9.69,15a1,1,0,0,0-.53.88V28a1,1,0,0,0,1,1,1.07,1.07,0,0,0,.48-.12,8.69,8.69,0,0,1,4-1,9,9,0,0,1,5.5,2,9,9,0,0,1,5.5-2,8.58,8.58,0,0,1,4,1,1.07,1.07,0,0,0,.48.12,1,1,0,0,0,1-1V15.87A1,1,0,0,0,30.63,15ZM18.16,26.41a10.19,10.19,0,0,0-7,0V16.5a8.92,8.92,0,0,1,7,0Zm9-16.12-5,5v9.5l5-4.5Z"/></svg>